<?xml version="1.0" encoding="UTF-8" standalone="no"?>
<svg
   width="384"
   height="384"
   viewBox="0 0 384 384"
   version="1.1"
   id="svg839"
   inkscape:version="1.1.2 (0a00cf5339, 2022-02-04, custom)"
   sodipodi:docname="hedgerows-black.svg"
   xmlns:inkscape="http://www.inkscape.org/namespaces/inkscape"
   xmlns:sodipodi="http://sodipodi.sourceforge.net/DTD/sodipodi-0.dtd"
   xmlns="http://www.w3.org/2000/svg"
   xmlns:svg="http://www.w3.org/2000/svg"
   xmlns:rdf="http://www.w3.org/1999/02/22-rdf-syntax-ns#"
   xmlns:cc="http://creativecommons.org/ns#"
   xmlns:dc="http://purl.org/dc/elements/1.1/">
  <title
     id="title1151">Hedgerows</title>
  <defs
     id="defs833" />
  <sodipodi:namedview
     id="base"
     pagecolor="#ffffff"
     bordercolor="#666666"
     borderopacity="1.0"
     inkscape:pageopacity="0.0"
     inkscape:pageshadow="2"
     inkscape:zoom="2.1314086"
     inkscape:cx="34.484237"
     inkscape:cy="161.39561"
     inkscape:document-units="px"
     inkscape:current-layer="layer1"
     inkscape:document-rotation="0"
     showgrid="true"
     units="px"
     width="384px"
     inkscape:pagecheckerboard="true"
     inkscape:window-width="3840"
     inkscape:window-height="2054"
     inkscape:window-x="-11"
     inkscape:window-y="-11"
     inkscape:window-maximized="1">
    <inkscape:grid
       type="xygrid"
       id="grid1402"
       spacingx="8"
       spacingy="4"
       empspacing="8" />
  </sodipodi:namedview>
  <metadata
     id="metadata836">
    <rdf:RDF>
      <cc:Work
         rdf:about="">
        <dc:format>image/svg+xml</dc:format>
        <dc:type
           rdf:resource="http://purl.org/dc/dcmitype/StillImage" />
        <dc:title>Hedgerows</dc:title>
      </cc:Work>
    </rdf:RDF>
  </metadata>
  <g
     inkscape:label="Layer 1"
     inkscape:groupmode="layer"
     id="layer1">
    <path
       style="fill:none;stroke:#000000;stroke-width:11.3386;stroke-linecap:round;stroke-linejoin:round;stroke-miterlimit:4;stroke-dasharray:none;stroke-opacity:1"
       d="M 272,256 V 138"
       id="path3450"
       sodipodi:nodetypes="cc" />
    <path
       style="fill:none;stroke:#000000;stroke-width:11.339;stroke-linecap:round;stroke-linejoin:round;stroke-miterlimit:4;stroke-dasharray:none;stroke-opacity:1"
       d="M 112,236 V 106"
       id="path3442"
       sodipodi:nodetypes="cc" />
    <path
       id="path3425-6"
       style="fill:none;fill-opacity:1;stroke:#000000;stroke-width:10.58267717;stroke-linecap:round;stroke-linejoin:round;stroke-miterlimit:4;stroke-dasharray:none;stroke-opacity:1;paint-order:normal"
       d="M 124.55273 232.68359 C 108.57802 232.92959 99.425763 251.42087 110.69727 272.78711 C 127.97156 268.10462 138.95148 287.04852 120 306 C 152 306 152 346 120 346 L 110.30859 346 C 113.07228 346.40151 116.04755 346.62109 119.25781 346.62109 L 162.91406 346.62109 L 184.74219 346.62109 C 194.15256 346.62109 201.52928 343.7529 206.88281 339.25977 C 193.42177 329.00104 197.81943 309.79095 214.10742 301.48047 C 209.35065 292.09289 199.56653 284.98242 184.74219 284.98242 C 217.4851 247.99946 184.7429 211.01704 152 248 C 142.27945 237.02068 132.55985 232.56029 124.55273 232.68359 z " />
    <path
       style="fill:none;fill-opacity:1;stroke:#000000;stroke-width:11.3386;stroke-linecap:round;stroke-linejoin:round;stroke-miterlimit:4;stroke-dasharray:none;stroke-opacity:1;paint-order:normal"
       d="m 120,346 c 32,0 32,-40 0,-40 24,-24 0,-48 -24,-24 -24,-24 -48,0 -24,24 -32,0 -40,40 0,40 v 0 c 48,0 32,0 32,0 z"
       id="path1408"
       sodipodi:nodetypes="ccccc" />
    <path
       style="fill:none;fill-opacity:1;stroke:#000000;stroke-width:11.3386;stroke-linecap:round;stroke-linejoin:round;stroke-miterlimit:4;stroke-dasharray:none;stroke-opacity:1;paint-order:normal"
       d="m 290,346 c 38.81914,0 38.81914,-48.52392 0,-48.52392 29.11435,-29.11435 0,-58.2287 -29.11435,-29.11435 -29.11435,-29.11435 -58.22871,0 -29.11435,29.11435 -38.81914,0 -48.52392,48.52392 0,48.52392 v 0 c 58.2287,0 38.81913,0 38.81913,0 z"
       id="path3425"
       sodipodi:nodetypes="ccccc" />
    <path
       style="fill:none;stroke:#000000;stroke-width:11.71653543;stroke-linecap:round;stroke-linejoin:miter;stroke-miterlimit:4;stroke-dasharray:none;stroke-opacity:1"
       d="M 24,346 H 360"
       id="path1404" />
    <path
       style="fill:none;stroke:#000000;stroke-width:11.3386;stroke-linecap:round;stroke-linejoin:miter;stroke-miterlimit:4;stroke-dasharray:none;stroke-opacity:1"
       d="M 112,202 C 80,178 80,178 80,178 v 0"
       id="path3444" />
    <path
       style="fill:none;stroke:#000000;stroke-width:11.3386;stroke-linecap:round;stroke-linejoin:miter;stroke-miterlimit:4;stroke-dasharray:none;stroke-opacity:1"
       d="m 112,154 40,-32"
       id="path3446" />
    <path
       style="fill:none;stroke:#000000;stroke-width:11.3386;stroke-linecap:round;stroke-linejoin:miter;stroke-miterlimit:4;stroke-dasharray:none;stroke-opacity:1"
       d="M 112,130 88,106"
       id="path3448" />
    <path
       style="fill:none;stroke:#000000;stroke-width:11.3386;stroke-linecap:round;stroke-linejoin:miter;stroke-miterlimit:4;stroke-dasharray:none;stroke-opacity:1"
       d="m 272,234 c -32,-24 -32,-24 -32,-24 v 0"
       id="path3452" />
    <path
       style="fill:none;stroke:#000000;stroke-width:11.3386;stroke-linecap:round;stroke-linejoin:miter;stroke-miterlimit:4;stroke-dasharray:none;stroke-opacity:1"
       d="m 272,186 40,-32"
       id="path3454" />
    <path
       style="fill:none;stroke:#000000;stroke-width:11.3386;stroke-linecap:round;stroke-linejoin:miter;stroke-miterlimit:4;stroke-dasharray:none;stroke-opacity:1"
       d="M 272,162 248,138"
       id="path3456" />
    <path
       style="fill:none;stroke:#000000;stroke-width:11.3386;stroke-linecap:round;stroke-linejoin:round;stroke-miterlimit:4;stroke-dasharray:none;stroke-opacity:1"
       d="M 112,210 C 96,226 80,226 72,202 40,210 32,98 64,106 48,90 72,50 96,58 c 0,-24 48,-24 48,0 24,-8 42.32181,24.517282 32,40 16,16 16,40 -8,56 16,16 16,40 -16,40 8,24 -24,32 -40,16 z"
       id="path3458"
       sodipodi:nodetypes="ccccccccc" />
    <path
       style="fill:none;stroke:#000000;stroke-width:11.3386;stroke-linecap:round;stroke-linejoin:round;stroke-miterlimit:4;stroke-dasharray:none;stroke-opacity:1"
       d="m 272,234 c -16,16 -32,16 -40,-8 -32,8 -40,-104 -8,-96 -16,-16 8,-56 32,-48 0,-24 48,-24 48,0 24,-8 42.32181,24.51728 32,40 16,16 16,40 -8,56 16,16 16,40 -16,40 8,24 -24,32 -40,16 z"
       id="path3460"
       sodipodi:nodetypes="ccccccccc" />
    <path
       style="fill:none;stroke:#000000;stroke-width:3.40157;stroke-linecap:round;stroke-linejoin:round;stroke-miterlimit:4;stroke-dasharray:none;stroke-opacity:1"
       d="m 88,322 c 4.840048,-3.27423 -6.838855,-10.32229 -8,-8 -1.421911,1.31159 5.074344,13.53737 8,8 z"
       id="path3462"
       sodipodi:nodetypes="ccc" />
    <path
       style="fill:none;stroke:#000000;stroke-width:3.40157;stroke-linecap:round;stroke-linejoin:round;stroke-miterlimit:4;stroke-dasharray:none;stroke-opacity:1"
       d="m 104,306 c 4.84005,-3.27423 -6.838855,-10.32229 -8,-8 -1.421911,1.31159 5.07434,13.53737 8,8 z"
       id="path3464"
       sodipodi:nodetypes="ccc" />
    <path
       style="fill:none;stroke:#000000;stroke-width:3.40157;stroke-linecap:round;stroke-linejoin:round;stroke-miterlimit:4;stroke-dasharray:none;stroke-opacity:1"
       d="m 168,314 c 4.84005,-3.27423 -6.83886,-10.32229 -8,-8 -1.42191,1.31159 5.07434,13.53737 8,8 z"
       id="path3466"
       sodipodi:nodetypes="ccc" />
    <path
       style="fill:none;stroke:#000000;stroke-width:3.40157;stroke-linecap:round;stroke-linejoin:round;stroke-miterlimit:4;stroke-dasharray:none;stroke-opacity:1"
       d="m 152,290 c 4.84005,-3.27423 -6.83886,-10.32229 -8,-8 -1.42191,1.31159 5.07434,13.53737 8,8 z"
       id="path3468"
       sodipodi:nodetypes="ccc" />
    <path
       style="fill:none;stroke:#000000;stroke-width:3.40157;stroke-linecap:round;stroke-linejoin:round;stroke-miterlimit:4;stroke-dasharray:none;stroke-opacity:1"
       d="m 160.96941,274.0011 c 3.27423,4.84005 10.32229,-6.83886 8,-8 -1.31159,-1.42191 -13.53737,5.07434 -8,8 z"
       id="path3470"
       sodipodi:nodetypes="ccc" />
    <path
       style="fill:none;stroke:#000000;stroke-width:3.40157;stroke-linecap:round;stroke-linejoin:round;stroke-miterlimit:4;stroke-dasharray:none;stroke-opacity:1"
       d="m 240,322 c 4.84005,-3.27423 -6.83886,-10.32229 -8,-8 -1.42191,1.31159 5.07434,13.53737 8,8 z"
       id="path3472"
       sodipodi:nodetypes="ccc" />
    <path
       style="fill:none;stroke:#000000;stroke-width:3.40157;stroke-linecap:round;stroke-linejoin:round;stroke-miterlimit:4;stroke-dasharray:none;stroke-opacity:1"
       d="m 256.96941,298.0011 c 3.27423,4.84005 10.32229,-6.83886 8,-8 -1.31159,-1.42191 -13.53737,5.07434 -8,8 z"
       id="path3474"
       sodipodi:nodetypes="ccc" />
    <path
       style="fill:none;stroke:#000000;stroke-width:3.40157;stroke-linecap:round;stroke-linejoin:round;stroke-miterlimit:4;stroke-dasharray:none;stroke-opacity:1"
       d="m 264.96941,322.0011 c 3.27423,4.84005 10.32229,-6.83886 8,-8 -1.31159,-1.42191 -13.53737,5.07434 -8,8 z"
       id="path3476"
       sodipodi:nodetypes="ccc" />
  </g>
</svg>
